{"title":"Visaranai 2016 Movies DVDScr XviD Clean Audio New +Sample ☻rDX☻","uid":13452895,"size":739218195,"categoryP":"video","categoryS":"movies","magnet":"?xt=urn:btih:8d28cb39b33873cc37103de24f194474109710dc&amp;dn=Visaranai+2016+Movies+DVDScr+XviD+Clean+Audio+New+%2BSample+%E2%98%BBrDX%E2%98%BB&amp;tr=udp%3A%2F%2Ftracker.leechers-paradise.org%3A6969&amp;tr=udp%3A%2F%2Fzer0day.ch%3A1337&amp;tr=udp%3A%2F%2Fopen.demonii.com%3A1337&amp;tr=udp%3A%2F%2Ftracker.coppersurfer.tk%3A6969&amp;tr=udp%3A%2F%2Fexodus.desync.com%3A6969","seeders":15,"leechers":15,"uploader":"basicssom","files":2,"time":1454818363,"description":"----------------------------------------------------------------\r\nVisaranai 2016 Tamil Movies DVDScr XviD AAC Clean Audio New Source with Sample ~ ☻rDX☻\r\n\r\nSCREEN SHOTS &amp; POSTER:\r\n  \nhttp://mobileshosting.com/2016/2/Visaranai/11.html  \nhttp://mobileshosting.com/2016/2/Visaranai/1.html  \nhttp://mobileshosting.com/2016/2/Visaranai/2.html  \nhttp://mobileshosting.com/2016/2/Visaranai/3.html  \nhttp://mobileshosting.com/2016/2/Visaranai/4.html  \nhttp://mobileshosting.com/2016/2/Visaranai/5.html  \nhttp://mobileshosting.com/2016/2/Visaranai/6.html  \nhttp://mobileshosting.com/2016/2/Visaranai/7.html  \nhttp://mobileshosting.com/2016/2/Visaranai/8.html  \nhttp://mobileshosting.com/2016/2/Visaranai/9.html  \nhttp://mobileshosting.com/2016/2/Visaranai/10.html\r\n\r\nFormat                                   : Matroska\r\nFormat version                           : Version 4 / Version 2\r\nFile size                                : 700 MiB\r\nDuration                                 : 1h 53mn\r\nOverall bit rate                         : 864 Kbps\r\nMovie name                               : Visaranai 2016 Tamil Movies DVDScr XviD AAC Clean Audio New Source ☻rDX☻\r\n\r\nVideo\r\nID                                       : 1\r\nFormat                                   : MPEG-4 Visual\r\nFormat profile                           : Advanced   \r\nFormat settings, BVOP                    : Yes\r\nFormat settings, QPel                    : No\r\nFormat settings, GMC                     : No warppoints\r\nFormat settings, Matrix                  : Default (H.263)\r\nCodec ID                                 : V_MS/VFW/FOURCC / XVID\r\nCodec ID/Hint                            : XviD\r\nDuration                                 : 1h 53mn\r\nBit rate                                 : 751 Kbps\r\nWidth                                    : 608 pixels\r\nHeight                                   : 256 pixels\r\nDisplay aspect ratio                     : 2.40:1\r\nFrame rate mode                          : Constant\r\nFrame rate                               : 25.000 fps\r\nColor space                              : YUV\r\nChroma subsampling                       : 4:2:0\r\nBit depth                                : 8 bits\r\nScan type                                : Progressive\r\nCompression mode                         : Lossy\r\nBits/(Pixel*Frame)                       : 0.193\r\nStream size                              : 608 MiB (87%)\r\nTitle                                    : ☻rDX☻\r\nWriting library                          : XviD 67\r\nDefault                                  : Yes\r\nForced                                   : No\r\n\r\nAudio\r\nID                                       : 2\r\nFormat                                   : MPEG Audio\r\nFormat version                           : Version 1\r\nFormat profile                           : Layer 3\r\nMode                                     : Joint stereo\r\nMode extension                           : MS Stereo\r\nCodec ID                                 : A_MPEG/L3\r\nCodec ID/Hint                            : MP3\r\nDuration                                 : 1h 53mn\r\nBit rate mode                            : Constant\r\nBit rate                                 : 96.0 Kbps\r\nChannel(s)                               : 2 channels\r\nSampling rate                            : 48.0 KHz\r\nCompression mode                         : Lossy\r\nStream size                              : 77.7 MiB (11%)\r\nTitle                                    : ☻rDX☻\r\nDefault                                  : Yes\r\nForced                                   : No\r\n\r\nIMDB                                     \r\nna","torrent":{"xt":"urn:btih:8d28cb39b33873cc37103de24f194474109710dc","amp;dn":"Visaranai+2016+Movies+DVDScr+XviD+Clean+Audio+New+%2BSample+%E2%98%BBrDX%E2%98%BB","amp;tr":["udp%3A%2F%2Ftracker.leechers-paradise.org%3A6969","udp%3A%2F%2Fzer0day.ch%3A1337","udp%3A%2F%2Fopen.demonii.com%3A1337","udp%3A%2F%2Ftracker.coppersurfer.tk%3A6969","udp%3A%2F%2Fexodus.desync.com%3A6969"],"infoHash":"8d28cb39b33873cc37103de24f194474109710dc","infoHashBuffer":{"type":"Buffer","data":[141,40,203,57,179,56,115,204,55,16,61,226,79,25,68,116,16,151,16,220]},"announce":[],"urlList":[]}}